# xmcd
#
# Track frame offsets:
#	150
#	13245
#	28449
#	44786
#	59539
#	70517
#	82284
#	100214
#	112676
#	127139
#
# Disc length: 1997 seconds
#
# Revision: 1
# Processed by: cddbd v1.5.2PL0 Copyright (c) Steve Scherf et al.
# Submitted via: audiograbber 1.83.01
#
DISCID=9307cb0a
DTITLE=Various Artist - Best Of Country [CD3]
DYEAR=2007
DGENRE=Country
TTITLE0=Brown, T. Graham - I Tell (It Like It Used To Be)
TTITLE1=Dalton, Lacy J. - Taking It Easy
TTITLE2=Fricke, Janie - It Ain't Easy Being Easy
TTITLE3=Gilley, Mickey - Stand By Me (Live)
TTITLE4=Haggard, Merle - Silver Wings
TTITLE5=Nelson, Willie - Night Life
TTITLE6=Newton, Juice - Break It To Me Gently
TTITLE7=Paycheck, Johnny - She's All I Got
TTITLE8=Stone, Doug - Why Didn't I Think Of That
TTITLE9=Tillis, Pam - Maybe It Was Memphis (Live)
EXTD=
EXTT0=
EXTT1=
EXTT2=
EXTT3=
EXTT4=
EXTT5=
EXTT6=
EXTT7=
EXTT8=
EXTT9=
PLAYORDER=
